<?xml version="1.0" encoding="utf-8"?>
<!-- Generator: Adobe Illustrator 27.1.1, SVG Export Plug-In . SVG Version: 6.00 Build 0)  -->
<svg version="1.1" id="Layer_1" xmlns="http://www.w3.org/2000/svg" xmlns:xlink="http://www.w3.org/1999/xlink" x="0px" y="0px"
	 viewBox="0 0 128 128" style="enable-background:new 0 0 128 128;" xml:space="preserve">
<style type="text/css">
	.st0{fill:#EFEFEF;}
	.st1{fill:#D3D3D3;}
	.st2{fill:#1772D5;}
</style>
<g id="consolidated_outland">
</g>
<g id="shubin">
</g>
<g id="grey_cat">
</g>
<g id="mirai">
</g>
<g id="crusader">
	<path class="st0" d="M65.8,52c-2.9,0-5.7,0.3-8.5,1c0,13,0,36.5,0,49.8c4.5,3,11,3.2,15.8,0.6c0-13.3,0-37.5,0-50.6
		C70.8,52.2,68.3,52,65.8,52z"/>
	<path class="st1" d="M92.6,38h-23V13.1c1.3-1.2,2.2-2.9,2.2-4.8c0-3.6-2.9-6.5-6.5-6.5s-6.5,2.9-6.5,6.5c0,1.9,0.8,3.6,2.2,4.8V38
		H38l10.9,6.8h8.5v3.1c2.7-0.6,5.6-0.9,8.5-0.9c2.5,0,5,0.2,7.4,0.6v-2.8h8.5L92.6,38z"/>
	<g>
		<g>
			<path class="st2" d="M84.8,80.4h17C98.9,68.1,89.8,58.2,78,54v18.1C81,74.3,83.3,77.1,84.8,80.4z"/>
			<path class="st2" d="M78,105.9c-5.4,3.6-12.4,4.8-18.6,2.8c-3.7-1.2-7.1-3.4-9.6-6.4c-2.8-3.2-4.3-6.8-4.7-10.9
				c0-0.4-0.1-0.8-0.1-1.2c-0.3-6.6,2.1-13.3,7.4-17.3V54.4c-8.4,3.4-14.4,8.7-18.3,15S28.5,83,28.8,90.2c0.4,8.7,3.6,16.9,9.3,23.4
				c3.3,3.8,7.4,6.9,12,9c9.9,4.6,21.9,4.5,31.7-0.3c7.4-3.6,13.5-9.9,17.1-17.2c1.2-2.4,2.1-4.9,2.7-7.5c-4.9,0-9.7,0-14.6-0.1
				c-0.8,0-1.7,0-2.4,0.5c-0.8,0.6-1.2,1.6-1.6,2.6c-0.8,1.6-2,3-3.4,4.1C79.1,105.1,78.6,105.5,78,105.9z"/>
		</g>
	</g>
</g>
<g id="uee">
</g>
<g id="arc_corp">
</g>
<g id="aegis">
</g>
<g id="RSI">
</g>
<g id="misc">
</g>
<g id="origin">
</g>
<g id="curelife">
</g>
<g id="argo">
</g>
<g id="anvil">
</g>
<g id="aopoa">
</g>
<g id="banu">
</g>
<g id="drake">
</g>
<g id="gatac">
</g>
<g id="nine_tails">
</g>
<g id="hurston_dynamics">
</g>
<g id="microtech">
</g>
<g id="klescher">
</g>
<g id="aciedo">
</g>
</svg>
